<?xml version="1.0" encoding="utf-8"?>
<!-- Generator: Adobe Illustrator 26.3.1, SVG Export Plug-In . SVG Version: 6.00 Build 0)  -->
<svg version="1.1" xmlns="http://www.w3.org/2000/svg" xmlns:xlink="http://www.w3.org/1999/xlink" x="0px" y="0px"
	 viewBox="0 0 700 700" style="enable-background:new 0 0 700 700;" xml:space="preserve">
<style type="text/css">
	.st0{fill:#263238;stroke:#FFFFFF;stroke-miterlimit:10;}
	.st1{fill:#FFFFFF;}
</style>
<g id="Layer_2">
	<rect class="st0" width="700" height="700"/>
</g>
<g id="Layer_1">
	<g>
		<ellipse class="st1" cx="562.8" cy="384.9" rx="29.4" ry="29.1"/>
		<path class="st1" d="M562.8,344.2c16.3,0,29.4-13,29.4-29.1c0-16.1-13.2-29.1-29.4-29.1c-16.3,0-29.4,13-29.4,29.1
			C533.4,331.2,546.6,344.2,562.8,344.2z"/>
		<path class="st1" d="M439.8,262.7c-48.8,0-88.3,39.1-88.3,87.3c0,48.2,39.5,87.3,88.3,87.3c48.8,0,88.3-39.1,88.3-87.3
			C528.2,301.8,488.6,262.7,439.8,262.7z M439.8,379.1c-16.3,0-29.5-13-29.5-29.1c0-16.1,13.2-29.1,29.5-29.1
			c16.3,0,29.4,13,29.4,29.1C469.3,366.1,456.1,379.1,439.8,379.1z"/>
		<ellipse class="st1" cx="317.9" cy="384.9" rx="29.4" ry="29.1"/>
		<path class="st1" d="M317.9,286c-16.3,0-29.4,13-29.4,29.1c0,16.1,13.2,29.1,29.4,29.1c16.3,0,29.4-13,29.4-29.1
			C347.3,299,334.1,286,317.9,286z"/>
		<path class="st1" d="M196,262.7c-48.8,0-88.3,39.1-88.3,87.3c0,48.2,39.5,87.3,88.3,87.3c48.8,0,88.3-39.1,88.3-87.3
			C284.4,301.8,244.8,262.7,196,262.7z M196,379.1c-16.3,0-29.4-13-29.4-29.1c0-16.1,13.2-29.1,29.4-29.1c16.3,0,29.4,13,29.4,29.1
			C225.5,366.1,212.3,379.1,196,379.1z"/>
	</g>
</g>
</svg>
