<svg width="700" height="700" viewBox="0 0 700 700" fill="none" xmlns="http://www.w3.org/2000/svg">
<path d="M76.1161 462.301C76.1161 464.144 76.4604 465.881 77.1529 467.5C77.8453 469.124 78.8026 470.542 80.0323 471.753C81.2583 472.968 82.6923 473.914 84.3345 474.599C85.9766 475.28 87.7323 475.624 89.5977 475.624C91.4631 475.624 93.2188 475.28 94.861 474.599C96.5031 473.914 97.9372 472.968 99.1669 471.753C100.393 470.542 101.35 469.124 102.043 467.5C102.735 465.881 103.079 464.144 103.079 462.301C103.079 460.459 102.735 458.722 102.043 457.102C101.35 455.479 100.393 454.06 99.1669 452.849C97.9372 451.635 96.5031 450.689 94.861 450.004C93.2188 449.323 91.4631 448.979 89.5977 448.979C87.7323 448.979 85.9766 449.323 84.3345 450.004C82.6923 450.689 81.2583 451.635 80.0323 452.849C78.8026 454.06 77.8453 455.479 77.1529 457.102C76.4604 458.722 76.1161 460.459 76.1161 462.301ZM70.4102 462.301C70.4102 459.74 70.9058 457.341 71.8896 455.105C72.8734 452.865 74.2242 450.908 75.9345 449.236C77.6447 447.564 79.6691 446.247 81.9999 445.293C84.3345 444.336 86.8658 443.855 89.5977 443.855C92.3296 443.855 94.861 444.336 97.1956 445.293C99.5264 446.247 101.551 447.564 103.261 449.236C104.971 450.908 106.322 452.865 107.306 455.105C108.293 457.341 108.785 459.74 108.785 462.301C108.785 464.863 108.293 467.262 107.306 469.498C106.322 471.738 104.971 473.691 103.261 475.367C101.551 477.039 99.5264 478.356 97.1956 479.309C94.861 480.267 92.3296 480.747 89.5977 480.747C86.8658 480.747 84.3345 480.267 81.9999 479.309C79.6691 478.356 77.6447 477.039 75.9345 475.367C74.2242 473.691 72.8734 471.738 71.8896 469.498C70.9058 467.262 70.4102 464.863 70.4102 462.301Z" fill="white"/>
<path d="M121.917 480.233H116.733V455.642H121.917V480.233ZM122.435 447.957C122.435 448.842 122.14 449.576 121.554 450.159C120.967 450.738 120.222 451.029 119.325 451.029C118.424 451.029 117.683 450.738 117.093 450.159C116.506 449.576 116.211 448.842 116.211 447.957C116.211 447.068 116.506 446.334 117.093 445.751C117.683 445.172 118.424 444.881 119.325 444.881C120.222 444.881 120.967 445.172 121.554 445.751C122.14 446.334 122.435 447.068 122.435 447.957Z" fill="white"/>
<path d="M135.927 462.301C135.927 464.144 136.275 465.881 136.964 467.5C137.656 469.124 138.617 470.542 139.843 471.753C141.069 472.968 142.503 473.914 144.145 474.599C145.787 475.28 147.543 475.624 149.408 475.624C151.278 475.624 153.029 475.28 154.672 474.599C156.314 473.914 157.752 472.968 158.978 471.753C160.204 470.542 161.165 469.124 161.857 467.5C162.546 465.881 162.894 464.144 162.894 462.301C162.894 460.459 162.546 458.722 161.857 457.102C161.165 455.479 160.204 454.06 158.978 452.849C157.752 451.635 156.314 450.689 154.672 450.004C153.029 449.323 151.278 448.979 149.408 448.979C147.543 448.979 145.787 449.323 144.145 450.004C142.503 450.689 141.069 451.635 139.843 452.849C138.617 454.06 137.656 455.479 136.964 457.102C136.275 458.722 135.927 460.459 135.927 462.301ZM130.225 462.301C130.225 459.74 130.716 457.341 131.7 455.105C132.688 452.865 134.035 450.908 135.745 449.236C137.459 447.564 139.48 446.247 141.814 445.293C144.145 444.336 146.68 443.855 149.408 443.855C152.14 443.855 154.672 444.336 157.006 445.293C159.341 446.247 161.361 447.564 163.075 449.236C164.786 450.908 166.133 452.865 167.12 455.105C168.104 457.341 168.596 459.74 168.596 462.301C168.596 464.863 168.104 467.262 167.12 469.498C166.133 471.738 164.786 473.691 163.075 475.367C161.361 477.039 159.341 478.356 157.006 479.309C154.672 480.267 152.14 480.747 149.408 480.747C146.68 480.747 144.145 480.267 141.814 479.309C139.48 478.356 137.459 477.039 135.745 475.367C134.035 473.691 132.688 471.738 131.7 469.498C130.716 467.262 130.225 464.863 130.225 462.301Z" fill="white"/>
<path d="M181.728 480.233H176.544V455.642H181.728V480.233ZM182.246 447.957C182.246 448.842 181.955 449.576 181.364 450.159C180.778 450.738 180.036 451.029 179.136 451.029C178.239 451.029 177.493 450.738 176.907 450.159C176.317 449.576 176.025 448.842 176.025 447.957C176.025 447.068 176.317 446.334 176.907 445.751C177.493 445.172 178.239 444.881 179.136 444.881C180.036 444.881 180.778 445.172 181.364 445.751C181.955 446.334 182.246 447.068 182.246 447.957Z" fill="white"/>
<path d="M196.44 477.413C196.44 478.302 196.103 479.078 195.426 479.747C194.752 480.413 193.965 480.746 193.069 480.746C192.168 480.746 191.381 480.413 190.708 479.747C190.034 479.078 189.697 478.302 189.697 477.413C189.697 476.527 190.034 475.748 190.708 475.082C191.381 474.416 192.168 474.083 193.069 474.083C193.965 474.083 194.752 474.416 195.426 475.082C196.103 475.748 196.44 476.527 196.44 477.413Z" fill="white"/>
<path d="M216.179 460.251H210.473V480.233H205.289V460.251H201.66V455.642H205.289V451.54C205.289 448.979 205.909 447.06 207.154 445.778C208.399 444.499 210.196 443.855 212.55 443.855C213.068 443.855 213.541 443.882 213.976 443.935C214.408 443.984 214.797 444.045 215.142 444.113L216.179 444.37V448.979C215.902 448.911 215.626 448.827 215.35 448.725C215.108 448.657 214.832 448.596 214.517 448.544C214.207 448.494 213.897 448.468 213.587 448.468C212.686 448.468 211.944 448.759 211.354 449.338C210.768 449.921 210.473 450.67 210.473 451.593V455.642H216.179V460.251Z" fill="white"/>
<path d="M227.874 480.233H222.686V455.642H227.874V480.233ZM228.392 447.957C228.392 448.842 228.097 449.576 227.511 450.159C226.92 450.738 226.179 451.029 225.278 451.029C224.381 451.029 223.636 450.738 223.05 450.159C222.463 449.576 222.168 448.842 222.168 447.957C222.168 447.068 222.463 446.334 223.05 445.751C223.636 445.172 224.381 444.881 225.278 444.881C226.179 444.881 226.92 445.172 227.511 445.751C228.097 446.334 228.392 447.068 228.392 447.957Z" fill="white"/>
<path d="M253.649 462.814H235.498V467.427H253.649V462.814Z" fill="white"/>
<path d="M278.965 469.986C278.965 468.961 278.688 468.125 278.136 467.478C277.583 466.827 276.857 466.282 275.956 465.835C275.06 465.393 274.038 465.018 272.899 464.708C271.756 464.401 270.583 464.068 269.373 463.709C268.162 463.353 266.985 462.933 265.846 462.456C264.703 461.976 263.686 461.363 262.785 460.61C261.888 459.861 261.162 458.919 260.609 457.791C260.057 456.667 259.781 455.264 259.781 453.591C259.781 452.259 260.046 450.995 260.583 449.8C261.12 448.604 261.896 447.571 262.918 446.701C263.935 445.831 265.188 445.138 266.675 444.627C268.162 444.113 269.838 443.855 271.707 443.855C273.539 443.855 275.128 444.098 276.475 444.574C277.826 445.051 278.949 445.581 279.846 446.164C280.917 446.845 281.833 447.613 282.593 448.468L278.965 452.055C278.48 451.472 277.894 450.961 277.201 450.519C276.615 450.14 275.854 449.792 274.92 449.467C273.989 449.141 272.914 448.979 271.707 448.979C270.739 448.979 269.865 449.107 269.085 449.365C268.309 449.622 267.651 449.97 267.118 450.417C266.58 450.859 266.175 451.355 265.899 451.9C265.623 452.448 265.483 453.012 265.483 453.591C265.483 454.616 265.759 455.453 266.312 456.104C266.864 456.751 267.591 457.299 268.491 457.742C269.388 458.185 270.409 458.563 271.548 458.869C272.691 459.176 273.868 459.509 275.075 459.868C276.286 460.228 277.462 460.644 278.601 461.125C279.744 461.601 280.762 462.214 281.662 462.967C282.559 463.72 283.286 464.659 283.838 465.786C284.394 466.914 284.671 468.314 284.671 469.986C284.671 471.522 284.383 472.949 283.815 474.266C283.244 475.579 282.404 476.714 281.299 477.671C280.194 478.628 278.836 479.378 277.228 479.926C275.62 480.471 273.781 480.747 271.707 480.747C269.494 480.747 267.575 480.456 265.948 479.873C264.325 479.294 262.978 478.644 261.903 477.928C260.662 477.107 259.607 476.169 258.74 475.109L262.373 471.522C262.959 472.275 263.701 472.957 264.601 473.573C265.362 474.084 266.323 474.553 267.481 474.981C268.639 475.408 270.046 475.624 271.707 475.624C274.057 475.624 275.854 475.068 277.099 473.955C278.344 472.847 278.965 471.522 278.965 469.986Z" fill="white"/>
<path d="M326.53 444.368H331.457V480.231H325.751V454.1L312.53 470.495L299.306 454.1V480.231H293.604V444.368H298.526L312.53 461.789L326.53 444.368Z" fill="white"/>
<path d="M354.099 444.368H359.801L374.842 480.231H368.879L364.989 470.752H348.912L345.026 480.231H339.062L354.099 444.368ZM350.989 465.629H362.915L356.952 450.77L350.989 465.629Z" fill="white"/>
<path d="M382.129 444.368H397.427C399.122 444.368 400.677 444.648 402.096 445.212C403.511 445.776 404.737 446.563 405.778 447.569C406.814 448.576 407.624 449.749 408.214 451.081C408.801 452.412 409.096 453.846 409.096 455.383C409.096 457.399 408.714 459.072 407.953 460.404C407.193 461.736 406.364 462.81 405.464 463.631C404.393 464.589 403.182 465.338 401.835 465.886L410.133 480.231H403.908L396.133 466.397H387.835V480.231H382.129V444.368ZM403.39 455.383C403.39 454.562 403.235 453.794 402.925 453.078C402.614 452.359 402.191 451.735 401.653 451.205C401.116 450.679 400.488 450.259 399.761 449.953C399.035 449.643 398.255 449.491 397.427 449.491H387.835V461.274H397.427C398.255 461.274 399.035 461.123 399.761 460.812C400.488 460.506 401.116 460.086 401.653 459.56C402.191 459.03 402.614 458.406 402.925 457.687C403.235 456.972 403.39 456.204 403.39 455.383Z" fill="white"/>
<path d="M442.085 444.368V449.491H431.195V480.231H425.489V449.491H414.6V444.368H442.085Z" fill="white"/>
<path d="M478.232 469.986C478.232 468.961 477.956 468.125 477.403 467.478C476.847 466.827 476.125 466.282 475.224 465.835C474.323 465.393 473.306 465.018 472.163 464.708C471.024 464.401 469.847 464.068 468.64 463.709C467.429 463.353 466.253 462.933 465.114 462.456C463.971 461.976 462.953 461.363 462.053 460.61C461.156 459.861 460.429 458.919 459.873 457.791C459.321 456.667 459.045 455.264 459.045 453.591C459.045 452.259 459.313 450.995 459.851 449.8C460.384 448.604 461.163 447.571 462.181 446.701C463.203 445.831 464.455 445.138 465.942 444.627C467.429 444.113 469.106 443.855 470.971 443.855C472.802 443.855 474.395 444.098 475.742 444.574C477.089 445.051 478.213 445.581 479.114 446.164C480.185 446.845 481.1 447.613 481.861 448.468L478.232 452.055C477.748 451.472 477.161 450.961 476.469 450.519C475.882 450.14 475.122 449.792 474.187 449.467C473.253 449.141 472.182 448.979 470.971 448.979C470.002 448.979 469.132 449.107 468.353 449.365C467.577 449.622 466.919 449.97 466.381 450.417C465.848 450.859 465.439 451.355 465.163 451.9C464.887 452.448 464.751 453.012 464.751 453.591C464.751 454.616 465.027 455.453 465.579 456.104C466.132 456.751 466.858 457.299 467.759 457.742C468.655 458.185 469.677 458.563 470.816 458.869C471.959 459.176 473.132 459.509 474.342 459.868C475.553 460.228 476.726 460.644 477.869 461.125C479.008 461.601 480.029 462.214 480.93 462.967C481.827 463.72 482.553 464.659 483.106 465.786C483.658 466.914 483.934 468.314 483.934 469.986C483.934 471.522 483.65 472.949 483.079 474.266C482.508 475.579 481.672 476.714 480.567 477.671C479.458 478.628 478.103 479.378 476.495 479.926C474.887 480.471 473.045 480.747 470.971 480.747C468.761 480.747 466.839 480.456 465.216 479.873C463.593 479.294 462.242 478.644 461.171 477.928C459.926 477.107 458.874 476.169 458.008 475.109L461.636 471.522C462.227 472.275 462.968 472.957 463.869 473.573C464.629 474.084 465.587 474.553 466.745 474.981C467.902 475.408 469.314 475.624 470.971 475.624C473.325 475.624 475.122 475.068 476.367 473.955C477.608 472.847 478.232 471.522 478.232 469.986Z" fill="white"/>
<path d="M507.39 444.368C509.153 444.368 510.78 444.667 512.267 445.265C513.754 445.863 515.04 446.68 516.13 447.724C517.216 448.765 518.064 449.987 518.669 451.387C519.274 452.787 519.577 454.289 519.577 455.894C519.577 457.502 519.274 459.004 518.669 460.404C518.064 461.804 517.216 463.026 516.13 464.067C515.04 465.107 513.754 465.928 512.267 466.526C510.78 467.124 509.153 467.423 507.39 467.423H498.577V480.231H492.871V444.368H507.39ZM498.577 449.491V462.299H507.39C508.29 462.299 509.138 462.137 509.932 461.811C510.727 461.49 511.419 461.036 512.006 460.457C512.592 459.874 513.054 459.193 513.379 458.406C513.708 457.619 513.875 456.783 513.875 455.894C513.875 455.008 513.708 454.172 513.379 453.385C513.054 452.598 512.592 451.917 512.006 451.334C511.419 450.755 510.727 450.301 509.932 449.976C509.138 449.654 508.29 449.491 507.39 449.491H498.577Z" fill="white"/>
<path d="M536.623 444.368H542.325L557.361 480.231H551.398L547.512 470.752H531.435L527.545 480.231H521.582L536.623 444.368ZM533.508 465.629H545.435L539.472 450.77L533.508 465.629Z" fill="white"/>
<path d="M580.072 443.855C582.562 443.855 584.723 444.215 586.554 444.934C588.389 445.649 589.925 446.451 591.17 447.34C592.589 448.366 593.815 449.508 594.852 450.772L591.223 454.359C590.497 453.368 589.581 452.482 588.476 451.695C587.542 451.014 586.376 450.39 584.972 449.826C583.572 449.262 581.942 448.979 580.072 448.979C578.207 448.979 576.451 449.323 574.809 450.004C573.167 450.689 571.733 451.635 570.507 452.849C569.281 454.06 568.32 455.479 567.628 457.102C566.939 458.722 566.591 460.459 566.591 462.301C566.591 464.144 566.939 465.881 567.628 467.5C568.32 469.124 569.281 470.542 570.507 471.753C571.733 472.968 573.167 473.914 574.809 474.599C576.451 475.28 578.207 475.624 580.072 475.624C581.942 475.624 583.584 475.333 584.999 474.75C586.418 474.171 587.61 473.52 588.578 472.805C589.717 471.984 590.686 471.046 591.481 469.986L595.113 473.573C594.038 474.905 592.759 476.101 591.276 477.16C589.997 478.046 588.431 478.867 586.581 479.62C584.734 480.369 582.562 480.747 580.072 480.747C577.344 480.747 574.809 480.267 572.478 479.309C570.144 478.356 568.123 477.039 566.409 475.367C564.699 473.691 563.352 471.738 562.364 469.498C561.381 467.262 560.889 464.863 560.889 462.301C560.889 459.74 561.381 457.341 562.364 455.105C563.352 452.865 564.699 450.908 566.409 449.236C568.123 447.564 570.144 446.247 572.478 445.293C574.809 444.336 577.344 443.855 580.072 443.855Z" fill="white"/>
<path d="M629.455 475.108V480.231H603.271V444.368H628.937V449.491H608.974V458.97H624.79V464.093H608.974V475.108H629.455Z" fill="white"/>
<path d="M595.205 390.141C613.969 390.141 629.18 375.113 629.18 356.575C629.18 338.037 613.969 323.009 595.205 323.009C576.441 323.009 561.23 338.037 561.23 356.575C561.23 375.113 576.441 390.141 595.205 390.141Z" fill="white"/>
<path d="M595.205 309.591C613.969 309.591 629.18 294.561 629.18 276.021C629.18 257.481 613.969 242.452 595.205 242.452C576.441 242.452 561.23 257.481 561.23 276.021C561.23 294.561 576.441 309.591 595.205 309.591Z" fill="white"/>
<path d="M453.287 349.87C434.52 349.87 419.297 334.845 419.297 316.305C419.297 297.76 434.52 282.731 453.287 282.731C472.047 282.731 487.254 297.76 487.254 316.305C487.254 334.845 472.047 349.87 453.287 349.87ZM453.287 215.599C396.981 215.599 351.367 260.687 351.367 316.305C351.367 371.919 396.981 417.002 453.287 417.002C509.567 417.002 555.2 371.919 555.2 316.305C555.2 260.687 509.567 215.599 453.287 215.599Z" fill="white"/>
<path d="M312.539 390.141C331.303 390.141 346.514 375.113 346.514 356.575C346.514 338.037 331.303 323.009 312.539 323.009C293.775 323.009 278.564 338.037 278.564 356.575C278.564 375.113 293.775 390.141 312.539 390.141Z" fill="white"/>
<path d="M312.539 309.591C331.303 309.591 346.514 294.561 346.514 276.021C346.514 257.481 331.303 242.452 312.539 242.452C293.775 242.452 278.564 257.481 278.564 276.021C278.564 294.561 293.775 309.591 312.539 309.591Z" fill="white"/>
<path d="M171.985 349.87C153.221 349.87 138.018 334.845 138.018 316.305C138.018 297.76 153.221 282.731 171.985 282.731C190.752 282.731 205.955 297.76 205.955 316.305C205.955 334.845 190.752 349.87 171.985 349.87ZM171.985 215.599C115.697 215.599 70.0684 260.687 70.0684 316.305C70.0684 371.919 115.697 417.002 171.985 417.002C228.28 417.002 273.897 371.919 273.897 316.305C273.897 260.687 228.28 215.599 171.985 215.599Z" fill="white"/>
</svg>
